<svg width="22" height="23" viewBox="0 0 22 23" fill="none" xmlns="http://www.w3.org/2000/svg">
<path d="M9.375 22.0697C10.4105 22.0697 11.25 21.2302 11.25 20.1947C11.25 19.1592 10.4105 18.3197 9.375 18.3197C8.33947 18.3197 7.5 19.1592 7.5 20.1947C7.5 21.2302 8.33947 22.0697 9.375 22.0697Z" stroke="black"/>
<path d="M18.125 22.0697C19.1605 22.0697 20 21.2302 20 20.1947C20 19.1592 19.1605 18.3197 18.125 18.3197C17.0895 18.3197 16.25 19.1592 16.25 20.1947C16.25 21.2302 17.0895 22.0697 18.125 22.0697Z" stroke="black"/>
<path d="M1.25 1.44469H3.75L8.13 15.1947H18.125" stroke="black" stroke-linecap="round" stroke-linejoin="round"/>
<path d="M7.155 12.0697L4.75 4.56969H20.3837C20.4828 4.56956 20.5805 4.593 20.6688 4.63807C20.757 4.68313 20.8333 4.74853 20.8913 4.82887C20.9493 4.90921 20.9873 5.00218 21.0023 5.10013C21.0173 5.19807 21.0088 5.29818 20.9775 5.39219L18.8937 11.6422C18.8523 11.7666 18.7728 11.8748 18.6665 11.9515C18.5601 12.0283 18.4324 12.0696 18.3013 12.0697H7.155Z" stroke="black" stroke-linecap="round" stroke-linejoin="round"/>
</svg>
