<svg width="25" height="22" viewBox="0 0 25 22" fill="none" xmlns="http://www.w3.org/2000/svg">
<path d="M3.3 10.4947C2.80576 10.0037 2.41417 9.41932 2.14806 8.7755C1.88195 8.13168 1.74664 7.44134 1.75 6.7447C1.75 5.33574 2.30971 3.98448 3.306 2.9882C4.30228 1.99191 5.65354 1.4322 7.0625 1.4322C9.0375 1.4322 10.7625 2.5072 11.675 4.1072H13.075C13.5389 3.29352 14.2101 2.61731 15.0204 2.14742C15.8306 1.67753 16.7509 1.43075 17.6875 1.4322C19.0965 1.4322 20.4477 1.99191 21.444 2.9882C22.4403 3.98448 23 5.33574 23 6.7447C23 8.2072 22.375 9.5572 21.45 10.4947L12.375 19.5572L3.3 10.4947ZM22.325 11.3822C23.5125 10.1822 24.25 8.5572 24.25 6.7447C24.25 5.00422 23.5586 3.33502 22.3279 2.10431C21.0972 0.873605 19.428 0.182201 17.6875 0.182201C15.5 0.182201 13.5625 1.2447 12.375 2.8947C11.7689 2.05282 10.9708 1.3676 10.0468 0.895861C9.12294 0.424124 8.09987 0.179473 7.0625 0.182201C5.32202 0.182201 3.65282 0.873605 2.42211 2.10431C1.1914 3.33502 0.5 5.00422 0.5 6.7447C0.5 8.5572 1.2375 10.1822 2.425 11.3822L12.375 21.3322L22.325 11.3822Z" fill="black"/>
</svg>
