<svg width="21" height="26" viewBox="0 0 21 26" fill="none" xmlns="http://www.w3.org/2000/svg">
<path fill-rule="evenodd" clip-rule="evenodd" d="M10.8088 23.7113C12.2464 22.4067 13.5769 20.9888 14.7875 19.4712C17.3375 16.2675 18.8888 13.1087 18.9937 10.3C19.0353 9.15849 18.8463 8.02032 18.4382 6.95348C18.03 5.88663 17.411 4.913 16.6181 4.09074C15.8252 3.26848 14.8748 2.61446 13.8235 2.16775C12.7722 1.72105 11.6416 1.49082 10.4994 1.49082C9.35711 1.49082 8.22657 1.72105 7.17527 2.16775C6.12398 2.61446 5.17351 3.26848 4.38063 4.09074C3.58776 4.913 2.96874 5.88663 2.56058 6.95348C2.15241 8.02032 1.96345 9.15849 2.005 10.3C2.11125 13.1087 3.66375 16.2675 6.2125 19.4712C7.42308 20.9888 8.75361 22.4067 10.1912 23.7113C10.3296 23.8363 10.4325 23.9271 10.5 23.9837L10.8088 23.7113ZM9.5775 25.1675C9.5775 25.1675 0.5 17.5225 0.5 10C0.5 7.34784 1.55357 4.8043 3.42893 2.92893C5.3043 1.05357 7.84784 0 10.5 0C13.1522 0 15.6957 1.05357 17.5711 2.92893C19.4464 4.8043 20.5 7.34784 20.5 10C20.5 17.5225 11.4225 25.1675 11.4225 25.1675C10.9175 25.6325 10.0863 25.6275 9.5775 25.1675ZM10.5 13.5C11.4283 13.5 12.3185 13.1313 12.9749 12.4749C13.6313 11.8185 14 10.9283 14 10C14 9.07174 13.6313 8.1815 12.9749 7.52513C12.3185 6.86875 11.4283 6.5 10.5 6.5C9.57174 6.5 8.6815 6.86875 8.02513 7.52513C7.36875 8.1815 7 9.07174 7 10C7 10.9283 7.36875 11.8185 8.02513 12.4749C8.6815 13.1313 9.57174 13.5 10.5 13.5ZM10.5 15C9.17392 15 7.90215 14.4732 6.96447 13.5355C6.02678 12.5979 5.5 11.3261 5.5 10C5.5 8.67392 6.02678 7.40215 6.96447 6.46447C7.90215 5.52678 9.17392 5 10.5 5C11.8261 5 13.0979 5.52678 14.0355 6.46447C14.9732 7.40215 15.5 8.67392 15.5 10C15.5 11.3261 14.9732 12.5979 14.0355 13.5355C13.0979 14.4732 11.8261 15 10.5 15Z" fill="black"/>
</svg>
