<svg width="27" height="28" viewBox="0 0 27 28" fill="none" xmlns="http://www.w3.org/2000/svg">
<path d="M15.6842 13.6208L12.5398 12.1536C12.2654 12.0262 12.04 12.169 12.04 12.4728V15.2364C12.04 15.5402 12.2654 15.683 12.5398 15.5556L15.6828 14.0884C15.9586 13.9596 15.9586 13.7496 15.6842 13.6208ZM13.44 0.414551C6.0172 0.414551 0 6.43175 0 13.8546C0 21.2774 6.0172 27.2946 13.44 27.2946C20.8628 27.2946 26.88 21.2774 26.88 13.8546C26.88 6.43175 20.8628 0.414551 13.44 0.414551ZM13.44 19.3146C6.5604 19.3146 6.44 18.6944 6.44 13.8546C6.44 9.01475 6.5604 8.39455 13.44 8.39455C20.3196 8.39455 20.44 9.01475 20.44 13.8546C20.44 18.6944 20.3196 19.3146 13.44 19.3146Z" fill="black"/>
</svg>
