<svg width="28" height="29" viewBox="0 0 28 29" fill="none" xmlns="http://www.w3.org/2000/svg">
<path d="M16.254 15.1948C16.2455 15.6383 16.1056 16.0693 15.8519 16.4331C15.5982 16.797 15.2422 17.0774 14.829 17.2387C14.4158 17.4 13.964 17.435 13.5309 17.3392C13.0978 17.2435 12.7028 17.0213 12.3961 16.7009C12.0894 16.3804 11.8848 15.9761 11.8081 15.5392C11.7315 15.1023 11.7862 14.6525 11.9655 14.2467C12.1448 13.841 12.4405 13.4976 12.8152 13.2602C13.1898 13.0227 13.6265 12.9018 14.07 12.9128C14.6592 12.9346 15.2168 13.1851 15.6245 13.6111C16.0322 14.0371 16.258 14.6051 16.254 15.1948Z" fill="black"/>
<path d="M17.8682 8.18066H10.2733C9.52175 8.18066 8.80103 8.4792 8.26963 9.0106C7.73823 9.54199 7.4397 10.2627 7.4397 11.0142V18.7799C7.4397 19.152 7.51299 19.5205 7.65539 19.8643C7.79779 20.2081 8.00651 20.5204 8.26963 20.7836C8.53275 21.0467 8.84512 21.2554 9.1889 21.3978C9.53269 21.5402 9.90115 21.6135 10.2733 21.6135H17.8682C18.2403 21.6135 18.6087 21.5402 18.9525 21.3978C19.2963 21.2554 19.6087 21.0467 19.8718 20.7836C20.1349 20.5204 20.3436 20.2081 20.486 19.8643C20.6284 19.5205 20.7017 19.152 20.7017 18.7799V11.0282C20.7032 10.655 20.631 10.2852 20.4893 9.94001C20.3476 9.59477 20.1392 9.2809 19.8759 9.01636C19.6127 8.75183 19.2999 8.54185 18.9553 8.39844C18.6108 8.25504 18.2414 8.18103 17.8682 8.18066ZM14.07 18.9927C13.3182 19.0097 12.5783 18.8023 11.9449 18.3969C11.3115 17.9916 10.8132 17.4067 10.5136 16.7169C10.2141 16.0271 10.1268 15.2637 10.2631 14.5241C10.3993 13.7845 10.7528 13.1023 11.2785 12.5645C11.8041 12.0267 12.4781 11.6577 13.2144 11.5046C13.9507 11.3515 14.7159 11.4213 15.4123 11.7051C16.1088 11.9888 16.7049 12.4736 17.1246 13.0976C17.5443 13.7216 17.7686 14.4565 17.7688 15.2086C17.7749 15.7 17.684 16.1879 17.5013 16.6442C17.3186 17.1005 17.0478 17.5163 16.7042 17.8678C16.3607 18.2193 15.9512 18.4995 15.4991 18.6926C15.0471 18.8856 14.5615 18.9876 14.07 18.9927ZM18.1804 11.4258C18.088 11.4258 17.9965 11.4074 17.9114 11.3717C17.8262 11.3359 17.749 11.2835 17.6843 11.2175C17.6197 11.1515 17.5688 11.0733 17.5348 10.9875C17.5007 10.9016 17.4841 10.8098 17.486 10.7174C17.486 10.5296 17.5606 10.3494 17.6935 10.2165C17.8263 10.0837 18.0065 10.009 18.1944 10.009C18.3822 10.009 18.5624 10.0837 18.6953 10.2165C18.8281 10.3494 18.9028 10.5296 18.9028 10.7174C18.9055 10.8174 18.8867 10.9169 18.8475 11.0089C18.8082 11.101 18.7496 11.1834 18.6755 11.2507C18.6015 11.318 18.5138 11.3685 18.4184 11.3987C18.323 11.4289 18.2222 11.4382 18.123 11.4258H18.1804Z" fill="black"/>
<path d="M14.07 0.854667C10.357 0.836103 6.78873 2.29327 4.15013 4.90562C1.51152 7.51797 0.0187402 11.0715 0.000175241 14.7845C-0.0183897 18.4975 1.43878 22.0658 4.05113 24.7044C6.66348 27.343 10.217 28.8358 13.93 28.8543C15.7685 28.8635 17.5908 28.5105 19.2928 27.8154C20.9949 27.1204 22.5434 26.0969 23.8499 24.8034C25.1564 23.5099 26.1953 21.9717 26.9074 20.2767C27.6194 18.5816 27.9906 16.763 27.9998 14.9245C28.009 13.086 27.656 11.2637 26.9609 9.56166C26.2659 7.85961 25.2424 6.31112 23.9489 5.00462C22.6554 3.69811 21.1172 2.65918 19.4222 1.94713C17.7272 1.23508 15.9085 0.86386 14.07 0.854667ZM22.5721 18.6372C22.576 19.2653 22.4552 19.8879 22.2167 20.469C21.9782 21.05 21.6267 21.5779 21.1826 22.0221C20.7386 22.4663 20.2107 22.8179 19.6298 23.0566C19.0488 23.2953 18.4262 23.4163 17.7982 23.4126H10.3446C9.71657 23.4165 9.09396 23.2957 8.51292 23.0572C7.93188 22.8187 7.40396 22.4672 6.95977 22.0231C6.51558 21.5791 6.16395 21.0512 5.92526 20.4703C5.68658 19.8893 5.56559 19.2667 5.56931 18.6386V11.1837C5.5654 10.5557 5.68621 9.93305 5.92473 9.35201C6.16324 8.77097 6.51471 8.24305 6.95878 7.79886C7.40284 7.35467 7.93065 7.00304 8.51162 6.76435C9.0926 6.52567 9.71517 6.40468 10.3432 6.4084H17.7982C18.4261 6.40468 19.0486 6.52563 19.6294 6.76422C20.2103 7.00282 20.7381 7.35433 21.1821 7.79837C21.6262 8.24241 21.9777 8.77016 22.2163 9.35104C22.4549 9.93192 22.5758 10.5544 22.5721 11.1823V18.6372Z" fill="black"/>
</svg>
