<svg width="28" height="29" viewBox="0 0 28 29" fill="none" xmlns="http://www.w3.org/2000/svg">
<path d="M14 0.854492C21.74 0.854492 28 7.11449 28 14.8545C28 22.5945 21.74 28.8545 14 28.8545C6.26 28.8545 0 22.5945 0 14.8545C0 7.11449 6.26 0.854492 14 0.854492ZM11.44 22.2345C17.64 22.2345 21.04 17.0945 21.04 12.6345V12.1945C21.7 11.7145 22.28 11.1145 22.72 10.4345C22.12 10.6945 21.46 10.8745 20.78 10.9745C21.48 10.5545 22.02 9.89449 22.26 9.11449C21.6 9.49449 20.88 9.77449 20.12 9.93449C19.5 9.27449 18.62 8.87449 17.66 8.87449C15.8 8.87449 14.28 10.3945 14.28 12.2545C14.28 12.5145 14.3 12.7745 14.38 13.0145C11.58 12.8745 9.08 11.5345 7.42 9.49449C7.14 9.99449 6.96 10.5745 6.96 11.1945C6.96 12.3545 7.56 13.3945 8.46 13.9945C7.9 13.9945 7.38 13.8345 6.94 13.5745V13.6145C6.94 15.2545 8.1 16.6145 9.64 16.9345C9.36 17.0145 9.06 17.0545 8.76 17.0545C8.54 17.0545 8.34 17.0345 8.12 16.9945C8.54 18.3345 9.8 19.3145 11.26 19.3345C10.1 20.2345 8.64 20.7745 7.06 20.7745C6.78 20.7745 6.52 20.7745 6.26 20.7345C7.74 21.6945 9.52 22.2545 11.42 22.2545" fill="black"/>
</svg>
