<svg width="19" height="18" viewBox="0 0 19 18" fill="none" xmlns="http://www.w3.org/2000/svg">
<path d="M7.96501 0.409462C6.82228 0.409467 5.69642 0.685238 4.68305 1.21336C3.66967 1.74147 2.79871 2.50634 2.14412 3.44301C1.48953 4.37967 1.07064 5.46047 0.923025 6.59363C0.775412 7.72679 0.903433 8.87883 1.29622 9.95194C1.689 11.025 2.33495 11.9875 3.17921 12.7576C4.02347 13.5277 5.0411 14.0827 6.14569 14.3755C7.25029 14.6682 8.40922 14.6901 9.52407 14.4392C10.6389 14.1884 11.6768 13.6722 12.5495 12.9345C12.5285 13.1931 12.6163 13.4594 12.8148 13.657L16.4801 17.3223C16.652 17.4942 16.8852 17.5908 17.1283 17.5908C17.3713 17.5908 17.6045 17.4942 17.7764 17.3223C17.9482 17.1504 18.0448 16.9173 18.0448 16.6742C18.0448 16.4311 17.9482 16.198 17.7764 16.0261L14.1111 12.3608C14.0171 12.2668 13.9038 12.1944 13.779 12.1486C13.6542 12.1028 13.521 12.0846 13.3885 12.0955C14.2626 11.0614 14.8229 9.799 15.0032 8.45707C15.1836 7.11514 14.9766 5.7496 14.4066 4.52142C13.8366 3.29324 12.9274 2.25361 11.7861 1.52507C10.6448 0.796536 9.31901 0.409457 7.96501 0.409462ZM2.23798 7.51097C2.23798 6.75889 2.38611 6.01417 2.67392 5.31934C2.96173 4.6245 3.38358 3.99316 3.91539 3.46136C4.44719 2.92955 5.07853 2.5077 5.77337 2.21989C6.4682 1.93208 7.21292 1.78395 7.96501 1.78395C8.71709 1.78395 9.46181 1.93208 10.1566 2.21989C10.8515 2.5077 11.4828 2.92955 12.0146 3.46136C12.5464 3.99316 12.9683 4.6245 13.2561 5.31934C13.5439 6.01417 13.692 6.75889 13.692 7.51097C13.692 9.02988 13.0887 10.4866 12.0146 11.5606C10.9406 12.6346 9.48391 13.238 7.96501 13.238C6.4461 13.238 4.98941 12.6346 3.91539 11.5606C2.84136 10.4866 2.23798 9.02988 2.23798 7.51097Z" fill="black"/>
</svg>
