<svg width="18" height="18" viewBox="0 0 18 18" fill="none" xmlns="http://www.w3.org/2000/svg">
<path d="M8.75 7.98721C7.71917 7.98721 6.83625 7.61971 6.10125 6.88471C5.36625 6.14971 4.99917 5.26721 5 4.23721C5.00083 3.20721 5.36792 2.32387 6.10125 1.58721C6.83458 0.850541 7.7175 0.484291 8.75 0.488458C9.7825 0.492624 10.6654 0.85929 11.3988 1.58846C12.1321 2.31762 12.4992 3.20096 12.5 4.23846C12.5008 5.27596 12.1338 6.15846 11.3988 6.88596C10.6638 7.61346 9.78083 7.97971 8.75 7.98721ZM0 17.026V14.9685C0 14.4526 0.15 13.9701 0.45 13.521C0.750834 13.071 1.155 12.7218 1.6625 12.4735C2.8425 11.9076 4.02333 11.4835 5.205 11.201C6.38583 10.9176 7.5675 10.776 8.75 10.776C9.9325 10.776 11.1146 10.9176 12.2962 11.201C13.4779 11.4843 14.6579 11.9085 15.8363 12.4735C16.3446 12.7218 16.7488 13.071 17.0487 13.521C17.3496 13.9701 17.5 14.4526 17.5 14.9685V17.026H0ZM1.25 15.776H16.25V14.9685C16.25 14.6918 16.1604 14.4314 15.9812 14.1872C15.8029 13.9439 15.5558 13.738 15.24 13.5697C14.2117 13.0714 13.1508 12.6897 12.0575 12.4247C10.9642 12.1597 9.86167 12.0268 8.75 12.026C7.63833 12.0251 6.53583 12.1576 5.4425 12.4235C4.34917 12.6893 3.28833 13.071 2.26 13.5685C1.94333 13.7368 1.69625 13.9426 1.51875 14.186C1.33958 14.4301 1.25 14.691 1.25 14.9685V15.776ZM8.75 6.73846C9.4375 6.73846 10.0262 6.49346 10.5163 6.00346C11.0063 5.51346 11.2508 4.92429 11.25 4.23596C11.2492 3.54762 11.0046 2.95929 10.5163 2.47096C10.0279 1.98262 9.43917 1.73762 8.75 1.73596C8.06083 1.73429 7.4725 1.97929 6.985 2.47096C6.4975 2.96262 6.2525 3.55096 6.25 4.23596C6.2475 4.92096 6.4925 5.50971 6.985 6.00221C7.4775 6.49471 8.06583 6.73929 8.75 6.73596" fill="black"/>
</svg>
